<svg xmlns="http://www.w3.org/2000/svg" viewBox="0 0 512 512">
  <!-- Large sparkle (bottom-left) -->
  <path d="
    M 160,150
    C 182,278 182,278 310,300
    C 182,322 182,322 160,450
    C 138,322 138,322 10,300
    C 138,278 138,278 160,150 Z
  " fill="#4DD9E0"/>

  <!-- Medium sparkle (top-center) -->
  <path d="
    M 295,40
    C 309,121 309,121 390,135
    C 309,149 309,149 295,230
    C 281,149 281,149 200,135
    C 281,121 281,121 295,40 Z
  " fill="#4DD9E0"/>

  <!-- Small sparkle (bottom-right) -->
  <path d="
    M 405,295
    C 414,346 414,346 465,355
    C 414,364 414,364 405,415
    C 396,364 396,364 345,355
    C 396,346 396,346 405,295 Z
  " fill="#4DD9E0"/>
</svg>
